<svg xmlns="http://www.w3.org/2000/svg" viewBox="0 0 232 122" fill="none" stroke-linecap="round" stroke-linejoin="round">
<style>.bd{fill:#0f1e3a;stroke:#d8b35c;stroke-width:1.5}.lg{stroke:#0f1e3a;stroke-width:8}.hf{stroke:#d8b35c;stroke-width:1.6}.hn{fill:#1a2c4c;stroke:#e9cd86;stroke-width:1.4}.hn2{fill:#14243f;stroke:#d8b35c;stroke-width:1.1}.ey{fill:#e9cd86}.tl{stroke:#d8b35c;stroke-width:1.6}.tt{stroke:#d8b35c;stroke-width:1.2}.lgk{stroke:#d8b35c;stroke-width:2.2}.lgf{stroke:#d8b35c;stroke-width:2.6}.sk{fill:#0f1e3a;stroke:#d8b35c;stroke-width:1.3}.hat{fill:#e8c46a;stroke:#f6dc98;stroke-width:1}.rp{stroke:#e9cd86;stroke-width:1.1;stroke-dasharray:2 2}.gd{stroke:#8cc8ec;stroke-opacity:.5;stroke-width:1.2}.gd2{stroke:#8cc8ec;stroke-opacity:.3;stroke-width:1}</style>
<path class="gd" d="M30 113H226" /><path class="gd2" d="M40 118h40M110 117h60M190 118h30"/><path class="tl" d="M45 54C36 62 36 76 38 88"/><path class="tt" d="M38 86l-3 6M38 86l1 7M38 86l4 5"/><path class="lg" d="M56 82L52 112"/><path class="lg" d="M70 86L74 112"/><path class="lg" d="M126 86L132 112"/><path class="lg" d="M138 84L136 112"/><path class="bd" d="M44 52C46 40 70 35 100 37C116 37 128 35 137 41C146 45 152 52 159 56C167 57 178 60 181 68C182 74 175 79 166 77C158 75 151 73 146 73C143 80 141 86 139 89C120 92 82 92 64 88C54 86 46 78 44 66Z"/><path class="hf" d="M49 112h7"/><path class="hf" d="M71 112h7"/><path class="hf" d="M129 112h7"/><path class="hf" d="M133 112h7"/><path class="bd" d="M152 57C146 56 142 60 144 63C148 62 151 61 153 60Z"/><path class="hn" d="M157 51C150 33 126 30 116 40C129 36 143 41 151 56Z"/><path class="hn2" d="M160 52C158 38 146 32 138 34C146 38 152 44 155 55Z"/><circle cx="164" cy="62" r="1.3" class="ey"/><path class="bd" d="M88 38C88 30 90 24 95 22C100 24 101 31 99 38Z"/><path class="lgk" d="M94 38L101 52L97 60"/><path class="lgk" d="M96 28L106 32"/><circle class="sk" cx="95" cy="17" r="4.2"/><path class="hat" d="M84 17L95 7.5 106 17Z"/><path class="rp" d="M179 69Q190 84 197 70"/><path class="lgf" d="M201 88L196 111M205 88L212 110"/><path class="bd" d="M196 64C195 74 196 84 199 90H208C209 82 209 72 207 63C204 60 199 60 196 64Z"/><path class="lgf" d="M198 68L195 72L197 70"/><path class="lgf" d="M207 67L213 79"/><circle class="sk" cx="202" cy="56" r="5"/><path class="hat" d="M188 56L202 43 216 56Z"/>
</svg>
