<svg xmlns="http://www.w3.org/2000/svg" xmlns:xlink="http://www.w3.org/1999/xlink" viewBox="0 0 420 260">
  <defs>
    <radialGradient id="pg" cx="0" cy="0" r="1" gradientUnits="userSpaceOnUse" gradientTransform="translate(0 -2) scale(26)">
      <stop offset="0" stop-color="#c4436b"/>
      <stop offset=".38" stop-color="#ee9ab4"/>
      <stop offset="1" stop-color="#ffe3ea"/>
    </radialGradient>
    <linearGradient id="bark" x1="0" y1="0" x2="1" y2="1">
      <stop offset="0" stop-color="#4a2a2a"/>
      <stop offset="1" stop-color="#2a1a22"/>
    </linearGradient>
    <path id="petal" d="M0 0C-8-5-11-16-6-24-4-27-2-26 0-22 2-26 4-27 6-24 11-16 8-5 0 0Z"/>
    <g id="flower">
      <use xlink:href="#petal" fill="url(#pg)"/>
      <use xlink:href="#petal" fill="url(#pg)" transform="rotate(72)"/>
      <use xlink:href="#petal" fill="url(#pg)" transform="rotate(144)"/>
      <use xlink:href="#petal" fill="url(#pg)" transform="rotate(216)"/>
      <use xlink:href="#petal" fill="url(#pg)" transform="rotate(288)"/>
      <circle r="4.2" fill="#b8325c"/>
      <g fill="#f6cf74">
        <circle cx="0" cy="-8" r="1.3"/><circle cx="7.6" cy="-2.5" r="1.3"/><circle cx="4.7" cy="6.5" r="1.3"/><circle cx="-4.7" cy="6.5" r="1.3"/><circle cx="-7.6" cy="-2.5" r="1.3"/>
      </g>
      <g stroke="#c4436b" stroke-width=".8" opacity=".7">
        <path d="M0-4V-8M3.8-1.2 7.6-2.5M2.4 3.2 4.7 6.5M-2.4 3.2-4.7 6.5M-3.8-1.2-7.6-2.5"/>
      </g>
    </g>
    <g id="bud">
      <path d="M0 0C-4-4-4-11 0-15 4-11 4-4 0 0Z" fill="#d6577e"/>
      <path d="M0 0C-2-3-2-9 0-13" stroke="#f3a7bd" stroke-width="1.2" fill="none"/>
      <path d="M-3 1Q0 4 3 1" stroke="#5a3a2a" stroke-width="2" fill="none"/>
    </g>
  </defs>
  <g fill="none" stroke="url(#bark)" stroke-linecap="round">
    <path d="M430-6C380 18 340 30 300 46 252 66 214 70 170 96 140 114 118 140 92 150" stroke-width="9"/>
    <path d="M300 46C306 74 300 104 284 128" stroke-width="5"/>
    <path d="M214 72C200 52 176 40 150 36" stroke-width="4"/>
    <path d="M170 96C172 126 164 154 148 176" stroke-width="3.5"/>
    <path d="M380 18C392 48 400 80 398 112" stroke-width="4.5"/>
    <path d="M118 138C100 128 76 126 52 132" stroke-width="2.5"/>
  </g>
  <use xlink:href="#flower" transform="translate(338 34) rotate(12) scale(1.15)"/>
  <use xlink:href="#flower" transform="translate(372 64) rotate(-20) scale(1.05)"/>
  <use xlink:href="#flower" transform="translate(398 104) rotate(30) scale(.95)"/>
  <use xlink:href="#flower" transform="translate(296 82) rotate(-8) scale(1.1)"/>
  <use xlink:href="#flower" transform="translate(284 126) rotate(40) scale(.9)"/>
  <use xlink:href="#flower" transform="translate(256 58) rotate(22) scale(.95)"/>
  <use xlink:href="#flower" transform="translate(212 92) rotate(-30) scale(1)"/>
  <use xlink:href="#flower" transform="translate(150 36) rotate(15) scale(.85)"/>
  <use xlink:href="#flower" transform="translate(186 56) rotate(-12) scale(.75)"/>
  <use xlink:href="#flower" transform="translate(164 140) rotate(20) scale(.95)"/>
  <use xlink:href="#flower" transform="translate(146 176) rotate(-14) scale(.8)"/>
  <use xlink:href="#flower" transform="translate(110 146) rotate(8) scale(.85)"/>
  <use xlink:href="#flower" transform="translate(56 132) rotate(-25) scale(.7)"/>
  <use xlink:href="#bud" transform="translate(322 60) rotate(-150)"/>
  <use xlink:href="#bud" transform="translate(236 78) rotate(160)"/>
  <use xlink:href="#bud" transform="translate(130 120) rotate(-160)"/>
  <use xlink:href="#bud" transform="translate(84 148) rotate(170)"/>
  <use xlink:href="#bud" transform="translate(392 132) rotate(175)"/>
  <use xlink:href="#bud" transform="translate(40 130) rotate(-110)"/>
  <g opacity=".85">
    <use xlink:href="#petal" fill="#f4b6c8" transform="translate(70 210) rotate(-40) scale(.6)"/>
    <use xlink:href="#petal" fill="#f7c6d4" transform="translate(236 196) rotate(120) scale(.55)"/>
    <use xlink:href="#petal" fill="#efa2b9" transform="translate(18 176) rotate(70) scale(.5)"/>
  </g>
</svg>
